<svg width="31" height="25" viewBox="0 0 31 25" fill="none" xmlns="http://www.w3.org/2000/svg">
<path d="M3.50179 0.193178C10.4732 0.193178 17.21 0.204891 23.9467 0.18544C25.7616 0.180162 27.4452 0.513356 28.7987 1.8415C30.1997 3.21615 30.8955 4.84965 30.4213 6.86776C30.19 7.85165 29.9658 8.83727 29.7381 9.82203C28.959 13.1912 24.8363 16.0615 22.1259 15.6588C21.5149 15.568 20.88 15.6455 20.15 15.6455C23.1353 18.5011 26.0447 21.2841 28.9541 24.0671C28.9025 24.1654 28.8509 24.2636 28.7993 24.362C26.5995 24.362 24.399 24.3906 22.2009 24.3302C21.8808 24.3215 21.5405 23.9201 21.2629 23.6444C18.8668 21.2657 16.4748 18.8823 14.1015 16.4801C13.5313 15.903 12.9463 15.5457 12.0965 15.664C11.513 15.7452 10.9078 15.6542 10.3124 15.6581C8.88271 15.6675 7.93623 16.3994 7.55025 17.7932C7.02012 19.7077 6.47641 21.6187 5.98286 23.5431C5.83194 24.1316 5.59495 24.3752 4.96762 24.3547C3.48681 24.3066 2.00343 24.3393 0.470459 24.3393C0.482296 24.0632 0.451422 23.8572 0.504795 23.6772C1.35653 20.8067 2.09161 17.8893 3.14728 15.0986C3.524 14.1027 4.60709 13.3154 5.50043 12.6076C7.63308 10.9179 10.1781 10.7703 12.756 10.7798C15.7005 10.7908 18.6454 10.753 21.5896 10.7061C23.5157 10.6754 24.2625 10.0411 24.7249 8.14558C24.8127 7.78563 24.8911 7.4233 24.9704 7.06132C25.298 5.56644 24.9104 5.04806 23.4031 5.05037C18.738 5.0576 14.0727 5.09933 9.4078 5.07489C8.906 5.07228 8.30508 4.84567 7.92292 4.51479C6.53651 3.31434 5.22204 2.02697 3.88624 0.765999C3.77781 0.663611 3.71328 0.512705 3.50179 0.193178Z" fill="black"/>
</svg>
