<svg width="224" height="224" viewBox="0 0 224 224" fill="none" xmlns="http://www.w3.org/2000/svg">
<g opacity="0.2" filter="url(#filter0_d_1_340)">
<rect x="34" y="28" width="128" height="128" rx="40" fill="#C06EF3"/>
</g>
<path d="M111.232 89.0579C114.448 88.5352 116.924 85.3459 116.931 81.4819C116.931 77.6739 114.531 74.5165 111.385 73.9192" stroke="#C06EF3" stroke-width="2.5" stroke-linecap="round" stroke-linejoin="round"/>
<path d="M115.476 98.0012C118.59 98.5399 120.763 99.8012 120.763 102.401C120.763 104.191 119.74 105.353 118.085 106.084" stroke="#C06EF3" stroke-width="2.5" stroke-linecap="round" stroke-linejoin="round"/>
<path fill-rule="evenodd" clip-rule="evenodd" d="M97.3998 99.1035C89.9913 99.1035 83.6638 100.402 83.6638 105.589C83.6638 110.773 89.9521 112.109 97.3998 112.109C104.808 112.109 111.133 110.824 111.133 105.634C111.133 100.445 104.847 99.1035 97.3998 99.1035Z" stroke="#C06EF3" stroke-width="2.5" stroke-linecap="round" stroke-linejoin="round"/>
<path fill-rule="evenodd" clip-rule="evenodd" d="M97.4 91.7013C102.261 91.7013 106.203 87.1439 106.203 81.5173C106.203 75.8933 102.261 71.3333 97.4 71.3333C92.5386 71.3333 88.597 75.8933 88.597 81.5173C88.5785 87.1226 92.4902 91.6826 97.3355 91.7013H97.4Z" stroke="#C06EF3" stroke-width="2.5" stroke-linecap="round" stroke-linejoin="round"/>
<path d="M83.565 89.0579C80.3471 88.5352 77.8737 85.3459 77.8668 81.4819C77.8668 77.6739 80.2664 74.5165 83.4128 73.9192" stroke="#C06EF3" stroke-width="2.5" stroke-linecap="round" stroke-linejoin="round"/>
<path d="M79.3217 98.0012C76.2075 98.5399 74.0338 99.8012 74.0338 102.401C74.0338 104.191 75.0573 105.353 76.7123 106.084" stroke="#C06EF3" stroke-width="2.5" stroke-linecap="round" stroke-linejoin="round"/>
<defs>
<filter id="filter0_d_1_340" x="0" y="0" width="224" height="224" filterUnits="userSpaceOnUse" color-interpolation-filters="sRGB">
<feFlood flood-opacity="0" result="BackgroundImageFix"/>
<feColorMatrix in="SourceAlpha" type="matrix" values="0 0 0 0 0 0 0 0 0 0 0 0 0 0 0 0 0 0 127 0" result="hardAlpha"/>
<feOffset dx="14" dy="20"/>
<feGaussianBlur stdDeviation="24"/>
<feComposite in2="hardAlpha" operator="out"/>
<feColorMatrix type="matrix" values="0 0 0 0 0.0978704 0 0 0 0 0.0602778 0 0 0 0 0.173056 0 0 0 0.02 0"/>
<feBlend mode="normal" in2="BackgroundImageFix" result="effect1_dropShadow_1_340"/>
<feBlend mode="normal" in="SourceGraphic" in2="effect1_dropShadow_1_340" result="shape"/>
</filter>
</defs>
</svg>
