<svg width="160" height="47" viewBox="0 0 160 47" fill="none" xmlns="http://www.w3.org/2000/svg">
<path d="M0.53445 35.3756C0.761706 34.6108 0.980014 33.8425 1.19886 33.0741C1.79591 30.9774 2.4128 28.8092 3.20196 26.7243C3.65002 25.5402 4.71642 24.7023 5.65758 23.9628L5.87938 23.7883C8.26124 21.9012 11.0852 21.7429 13.5453 21.7429L14.7943 21.7452C17.4728 21.7452 20.116 21.7091 22.5742 21.6696C24.0217 21.6469 24.3861 21.348 24.7411 19.8945C24.8193 19.575 24.8891 19.2544 24.959 18.9341L24.9807 18.8347C25.0664 18.4439 25.0694 18.2419 25.0624 18.1513C24.9788 18.1248 24.7907 18.0851 24.4134 18.0851C22.8113 18.0876 21.2181 18.0942 19.6244 18.1006C17.5882 18.1089 15.5519 18.1172 13.5161 18.1172C12.4784 18.1172 11.4407 18.1149 10.403 18.1096C9.66733 18.1058 8.82917 17.7898 8.26775 17.3042C7.1835 16.3654 6.13441 15.3665 5.11996 14.4007C4.81301 14.1084 4.50607 13.8164 4.19812 13.5257C4.02981 13.3669 3.92684 13.198 3.82729 13.0344C3.78472 12.9644 3.73274 12.8786 3.66193 12.772L2.59353 11.1567L15.8246 11.1603C18.8788 11.1603 21.9112 11.1579 24.9441 11.149C26.5046 11.149 28.7246 11.3506 30.5014 13.0938C32.2912 14.85 32.9323 16.8736 32.407 19.1085C32.2535 19.7628 32.103 20.4177 31.952 21.0728L31.7247 22.0593C30.8673 25.7703 26.7769 28.6593 23.7683 28.7299L32.6631 37.4306L30.4069 37.3967L26.5917 37.4036C25.6605 37.4036 24.4307 37.3991 23.1737 37.3647C22.4939 37.3457 22.0151 36.8552 21.6657 36.497L21.5562 36.3857C19.4165 34.262 16.8915 31.7486 14.3879 29.2148C13.9448 28.7663 13.6864 28.6763 13.4126 28.6763C13.3552 28.6763 13.2958 28.6806 13.2338 28.6892C13.0239 28.7185 12.7996 28.7327 12.5477 28.7327C12.3333 28.7327 12.1175 28.7223 11.9016 28.7114C11.7179 28.7023 11.5342 28.6928 11.3516 28.6928C10.3421 28.6994 9.7891 29.1253 9.52616 30.0741L9.18803 31.2893C8.77614 32.7683 8.35037 34.2974 7.96368 35.8047C7.69388 36.857 7.04583 37.3907 6.03832 37.3907L5.93536 37.3889C5.31797 37.369 4.70013 37.3632 4.0788 37.3632C3.65402 37.3632 3.22774 37.3659 2.7985 37.3685C2.35936 37.3712 1.91725 37.374 1.47068 37.374H0" fill="black"/>
<path d="M4.50179 12.1932C11.4732 12.1932 18.21 12.2049 24.9467 12.1854C26.7616 12.1802 28.4452 12.5134 29.7987 13.8415C31.1997 15.2161 31.8955 16.8496 31.4213 18.8678C31.19 19.8516 30.9658 20.8373 30.7381 21.822C29.959 25.1912 25.8363 28.0615 23.1259 27.6588C22.5149 27.568 21.88 27.6455 21.15 27.6455C24.1353 30.5011 27.0447 33.2841 29.9541 36.0671C29.9025 36.1654 29.8509 36.2636 29.7993 36.362C27.5995 36.362 25.399 36.3906 23.2009 36.3302C22.8808 36.3215 22.5405 35.9201 22.2629 35.6444C19.8668 33.2657 17.4748 30.8823 15.1015 28.4801C14.5313 27.903 13.9463 27.5457 13.0965 27.664C12.513 27.7452 11.9078 27.6542 11.3124 27.6581C9.88271 27.6675 8.93623 28.3994 8.55025 29.7932C8.02012 31.7077 7.47641 33.6187 6.98286 35.5431C6.83194 36.1316 6.59495 36.3752 5.96762 36.3547C4.48681 36.3066 3.00343 36.3393 1.47046 36.3393C1.4823 36.0632 1.45142 35.8572 1.5048 35.6772C2.35653 32.8067 3.09161 29.8893 4.14728 27.0986C4.524 26.1027 5.60709 25.3154 6.50043 24.6076C8.63308 22.9179 11.1781 22.7703 13.756 22.7798C16.7005 22.7908 19.6454 22.753 22.5896 22.7061C24.5157 22.6754 25.2625 22.0411 25.7249 20.1456C25.8127 19.7856 25.8911 19.4233 25.9704 19.0613C26.298 17.5664 25.9104 17.0481 24.4031 17.0504C19.738 17.0576 15.0727 17.0993 10.4078 17.0749C9.906 17.0723 9.30508 16.8457 8.92292 16.5148C7.53651 15.3143 6.22204 14.027 4.88624 12.766C4.77781 12.6636 4.71328 12.5127 4.50179 12.1932Z" fill="black"/>
<path d="M77.2743 37.2746C75.4103 37.2746 73.6758 36.9492 72.0708 36.2985C70.4897 35.6236 69.0974 34.6836 67.8938 33.4785C66.7139 32.2733 65.7935 30.8754 65.1328 29.2846C64.472 27.6698 64.1416 25.9344 64.1416 24.0785C64.1416 22.2225 64.472 20.4992 65.1328 18.9085C65.7935 17.2936 66.7139 15.8956 67.8938 14.7146C69.0738 13.5336 70.4543 12.6177 72.0354 11.9669C73.6404 11.2921 75.3749 10.9546 77.2389 10.9546C79.2212 10.9546 80.9791 11.28 82.5133 11.9308C84.0708 12.5815 85.428 13.4733 86.5841 14.6062L82.8673 18.4385C82.2067 17.7154 81.4039 17.149 80.4602 16.7392C79.5398 16.3295 78.4658 16.1246 77.2389 16.1246C76.1536 16.1246 75.1504 16.3175 74.2301 16.7031C73.3331 17.0646 72.5543 17.5949 71.8938 18.2939C71.2566 18.9928 70.7492 19.8364 70.3717 20.8246C70.0177 21.8128 69.8407 22.8975 69.8407 24.0785C69.8407 25.2836 70.0177 26.3802 70.3717 27.3685C70.7492 28.3567 71.2566 29.2002 71.8938 29.8992C72.5543 30.5982 73.3331 31.1405 74.2301 31.5262C75.1504 31.9118 76.1536 32.1046 77.2389 32.1046C78.5133 32.1046 79.6227 31.8998 80.5664 31.49C81.5101 31.0802 82.3243 30.5139 83.0089 29.7908L86.7611 33.6231C85.5575 34.7559 84.177 35.6477 82.6195 36.2985C81.0853 36.9492 79.3041 37.2746 77.2743 37.2746ZM104.937 36.8769L94.8128 23.5723L104.618 11.3523H111.485L100.441 24.6208V22.3069L111.839 36.8769H104.937ZM89.8216 36.8769V11.3523H95.3791V36.8769H89.8216ZM112.086 32.9L124.653 15.2931H131.378L118.777 32.9H112.086ZM112.086 36.8769V32.9L115.768 31.9962H131.06V36.8769H112.086ZM112.794 16.2331V11.3523H131.378V15.2931L127.626 16.2331H112.794Z" fill="black"/>
<path d="M138.083 36.8769V11.3523H143.605V36.8769H138.083ZM133.269 16.1608V11.3523H143.251V16.1608H133.269ZM151.461 36.8769V11.3523H156.983V36.8769H151.461ZM146.647 16.1608V11.3523H156.629V16.1608H146.647Z" fill="#169857"/>
<g filter="url(#filter0_i_20_1342)">
<path fill-rule="evenodd" clip-rule="evenodd" d="M40.3789 36.2464C49.0697 31.4114 55.2349 20.1547 52.487 11.5809C51.8626 11.3853 51.2166 11.2347 50.5519 11.1306C43.0784 9.9611 36.0812 15.2086 34.9361 22.8417C34.1368 28.1698 36.3979 33.2596 40.3789 36.2464ZM39.4696 33.9089C39.463 33.9067 40.7614 33.0884 41.2917 32.7102L41.9455 33.6641C41.4352 34.0326 40.6262 34.5287 40.093 34.8263L39.4696 33.9089ZM44.6315 31.3797L43.8635 30.5176C42.873 31.4384 42.5344 31.7168 42.1615 32.0312L42.8908 32.9286C43.8277 32.1339 43.9431 32.0187 44.6315 31.3797ZM42.675 37.639C43.8304 38.1902 45.0798 38.584 46.4023 38.7909C53.8759 39.9605 60.8731 34.7129 62.0182 27.0799C62.9131 21.1144 59.9706 15.4473 55.0753 12.6961C56.7411 21.7469 51.5933 32.0422 42.675 37.639ZM45.4767 30.5188L44.6351 29.7313C45.0662 29.2514 45.3404 28.9558 46.1238 27.9991L47.0003 28.7461C46.5055 29.3504 45.9965 29.9408 45.4767 30.5188ZM47.726 27.7815L46.79 27.1149C47.1157 26.6374 47.3741 26.2697 48.0334 25.1933L49.0007 25.813C49.0007 25.813 48.3698 26.8384 47.726 27.7815ZM46.1453 38.2411L45.3865 37.371L47.0249 35.996L47.7796 36.8549L46.1453 38.2411ZM49.5867 24.7475L48.5668 24.2246C48.795 23.7578 49.0144 23.3274 49.5191 22.1418L50.5661 22.6065C50.2152 23.4292 50.1375 23.6235 49.5867 24.7475ZM51.4984 11.8733C51.5368 12.0409 51.9576 14.04 51.9911 14.2093L50.8708 14.4397L50.4018 12.131L51.4984 11.8733ZM50.9836 21.4557L49.8952 21.1049C50.1203 20.3746 50.321 19.637 50.5041 18.8941L51.6119 19.1772C51.3909 20.0733 51.3428 20.2934 50.9836 21.4557ZM48.7087 36.0272L47.9499 35.157C48.3366 34.8046 48.7098 34.4726 49.5929 33.5823L50.3947 34.4119C50.3947 34.4119 49.5446 35.2673 48.7087 36.0272ZM52.0527 15.6072C51.9754 16.8077 51.9829 16.7193 51.8374 17.9586L50.7043 17.8214C50.818 16.8554 50.8353 16.7708 50.9127 15.5314L52.0527 15.6072ZM51.2064 33.5198L50.3358 32.7643C50.6682 32.3657 50.9468 32.0401 51.7582 30.9734L52.6603 31.689C52.082 32.4489 52.0153 32.5471 51.2064 33.5198ZM53.3494 30.6904L52.3853 30.0653C53.1489 28.8319 52.9997 29.0798 53.5554 28.0934L54.5458 28.6742C54.1617 29.3561 53.7608 30.027 53.3494 30.6904ZM55.0935 27.5945L54.0587 27.1023C54.2527 26.6785 54.4534 26.2569 54.961 24.9905L56.0172 25.433C55.6581 26.3252 55.593 26.5049 55.0935 27.5945ZM57.6851 15.1156L57.6036 17.3912L56.4776 17.3519L56.5622 15.0874L57.6851 15.1156ZM56.4155 24.2792L55.3225 23.943C55.4929 23.3622 55.6296 22.92 55.9178 21.723L57.0261 22.0026C57.0261 22.0026 56.738 23.1843 56.4155 24.2792ZM57.5358 18.4588C57.426 19.6683 57.3847 19.9355 57.259 20.8041L56.1297 20.6332C56.2122 20.061 56.2876 19.5739 56.3984 18.3503L57.5358 18.4588Z" fill="#169857"/>
</g>
<defs>
<filter id="filter0_i_20_1342" x="34.7764" y="7.96756" width="27.4016" height="30.9864" filterUnits="userSpaceOnUse" color-interpolation-filters="sRGB">
<feFlood flood-opacity="0" result="BackgroundImageFix"/>
<feBlend mode="normal" in="SourceGraphic" in2="BackgroundImageFix" result="shape"/>
<feColorMatrix in="SourceAlpha" type="matrix" values="0 0 0 0 0 0 0 0 0 0 0 0 0 0 0 0 0 0 127 0" result="hardAlpha"/>
<feOffset dy="-5"/>
<feGaussianBlur stdDeviation="1.5"/>
<feComposite in2="hardAlpha" operator="arithmetic" k2="-1" k3="1"/>
<feColorMatrix type="matrix" values="0 0 0 0 0.85 0 0 0 0 0.818125 0 0 0 0 0.818125 0 0 0 0.51 0"/>
<feBlend mode="normal" in2="shape" result="effect1_innerShadow_20_1342"/>
</filter>
</defs>
</svg>
