<?xml version="1.0" encoding="UTF-8"?>
<svg id="Layer_2" data-name="Layer 2" xmlns="http://www.w3.org/2000/svg" viewBox="0 0 234.53 60.57">
  <defs>
    <style>
      .cls-1 {
        fill: #fff;
        stroke-width: 0px;
      }
    </style>
  </defs>
  <g id="Layer_1-2" data-name="Layer 1">
    <g>
      <path class="cls-1" d="m46.18,0h-13.24l14.58,47.76,3.89,12.81h14.36L46.18,0ZM32.94,0h-13.33L0,60.57h14.19l4.07-12.81h29.27l-25.95-10.9L32.94,0Z"/>
      <polygon class="cls-1" points="53.08 0 67.27 0 86.65 60.31 86.82 60.31 106.34 0 120.53 0 100.93 60.57 72.54 60.57 53.08 0"/>
      <polygon class="cls-1" points="174.13 0 124.29 0 124.29 60.57 174.13 60.57 174.13 48.28 137.53 48.28 137.53 39.62 128.26 35.73 140.45 35.73 140.45 35.74 174.13 35.74 174.13 24.14 137.53 24.14 137.53 16.16 128.26 12.29 174.13 12.29 174.13 0"/>
      <path class="cls-1" d="m232.41,18.22c-1.42-3.72-3.43-6.92-6.06-9.61-2.62-2.68-5.78-4.79-9.48-6.32C213.18.76,209.03,0,204.42,0h-25.96v60.57h26.74c4.38,0,8.38-.74,11.98-2.21,3.6-1.47,6.69-3.53,9.26-6.19,2.57-2.65,4.56-5.83,5.97-9.52,1.41-3.69,2.12-7.76,2.12-12.2s-.71-8.52-2.12-12.24m-12.89,19.42c-.66,2.19-1.69,4.07-3.07,5.62-1.38,1.56-3.11,2.78-5.19,3.68-2.08.89-4.53,1.34-7.36,1.34h-12.2V16.14l-9.18-3.85h20.6c5.6,0,9.89,1.61,12.89,4.85,3,3.23,4.5,7.67,4.5,13.33,0,2.6-.33,4.99-.99,7.18"/>
    </g>
  </g>
</svg>