<svg width="164" height="28" viewBox="0 0 164 28" fill="none" xmlns="http://www.w3.org/2000/svg">
<path d="M0.5 27.5V0.5H162.63V27.5H0.5Z" stroke="white" stroke-miterlimit="10"/>
<path d="M21.1119 15.1124C20.0302 13.9785 18.9489 12.851 17.8671 11.7296C17.8586 11.9571 17.8505 12.2622 17.8424 12.644C17.8338 13.0259 17.83 13.5464 17.83 14.2045C17.83 14.3752 17.8319 14.5864 17.8362 14.8385C17.8405 15.0906 17.8443 15.3547 17.8486 15.631C17.8529 15.9073 17.859 16.1878 17.8671 16.472C17.8752 16.7566 17.8838 17.0203 17.8919 17.2645C17.9 17.5082 17.9086 17.7217 17.9167 17.9045C17.9248 18.0873 17.9333 18.2115 17.9414 18.2761C17.8081 18.2599 17.6624 18.252 17.5048 18.252C17.3382 18.252 17.1844 18.2599 17.043 18.2761C17.0596 18.1952 17.0782 18.0445 17.0992 17.825C17.1196 17.6054 17.1387 17.3436 17.1553 17.0385C17.172 16.7338 17.1906 16.4027 17.2115 16.045C17.232 15.6873 17.2491 15.3301 17.2615 14.9724C17.2739 14.6147 17.2844 14.2654 17.2929 13.924C17.301 13.5827 17.3053 13.278 17.3053 13.0096C17.3053 12.2296 17.3034 11.5589 17.2991 10.998C17.2948 10.4371 17.2844 10.0189 17.2677 9.74219H17.4672C17.9747 10.2785 18.5175 10.8538 19.0955 11.4673C19.6736 12.0808 20.2478 12.6864 20.8177 13.2836C21.3876 13.8808 21.9285 14.4459 22.4398 14.978C22.9517 15.5106 23.3988 15.9636 23.7816 16.3371V14.6789C23.7816 13.8254 23.7754 12.9947 23.763 12.1859C23.7506 11.3775 23.7235 10.6152 23.682 9.90033C23.8482 9.94126 23.9896 9.96126 24.1063 9.96126C24.2063 9.96126 24.3391 9.94126 24.5057 9.90033C24.4891 10.0794 24.47 10.3473 24.4496 10.705C24.4286 11.0627 24.4077 11.4445 24.3872 11.851C24.3662 12.2575 24.3477 12.6557 24.331 13.0459C24.3143 13.4361 24.3062 13.7492 24.3062 13.9845V14.7161C24.3062 14.9924 24.3081 15.2813 24.3124 15.5817C24.3167 15.8827 24.3205 16.185 24.3248 16.4901C24.3291 16.7947 24.3329 17.0794 24.3372 17.3436C24.3415 17.6078 24.3434 17.8375 24.3434 18.0324V18.4347H24.1686C23.2116 17.3538 22.1927 16.2464 21.1114 15.1129L21.1119 15.1124Z" fill="white"/>
<path d="M28.3186 11.4589C28.2976 10.9389 28.2748 10.4189 28.25 9.89844C28.6242 9.91472 28.9966 9.92914 29.367 9.94123C29.7369 9.95332 30.1093 9.95937 30.484 9.95937C30.8587 9.95937 31.2286 9.95332 31.5948 9.94123C31.9609 9.92914 32.3309 9.91472 32.7056 9.89844C32.6808 10.0203 32.668 10.1422 32.668 10.264C32.668 10.3859 32.6803 10.5077 32.7056 10.6296C32.4394 10.6133 32.1956 10.597 31.9757 10.5808C31.7552 10.5645 31.5219 10.5482 31.2767 10.5319C31.031 10.5156 30.763 10.5012 30.4716 10.4891C30.1802 10.477 29.8307 10.471 29.4232 10.471C29.4146 10.731 29.4046 10.9789 29.3917 11.2147C29.3794 11.4505 29.3732 11.7189 29.3732 12.0194C29.3732 12.3361 29.3751 12.6454 29.3794 12.9459C29.3837 13.2468 29.3856 13.4743 29.3856 13.6287C29.7517 13.6287 30.0802 13.6245 30.3716 13.6166C30.6625 13.6087 30.9287 13.5984 31.1701 13.5859C31.4115 13.5738 31.6338 13.5617 31.8376 13.5491C32.0414 13.537 32.2347 13.5231 32.418 13.5063C32.3932 13.6282 32.3804 13.7543 32.3804 13.884C32.3804 14.0059 32.3928 14.1277 32.418 14.2496C32.2014 14.2254 31.95 14.2049 31.6629 14.1887C31.3758 14.1724 31.0887 14.1626 30.802 14.158C30.5149 14.1538 30.2445 14.1501 29.9907 14.1459C29.7369 14.1417 29.5351 14.1398 29.3856 14.1398C29.3856 14.2129 29.3837 14.2924 29.3794 14.3775C29.3751 14.4626 29.3732 14.5705 29.3732 14.7008V15.9077C29.3732 16.371 29.3751 16.7529 29.3794 17.0538C29.3837 17.3547 29.3898 17.5822 29.3979 17.7366H30.2716C30.5878 17.7366 30.8977 17.7305 31.2015 17.7184C31.5053 17.7063 31.7924 17.6901 32.0623 17.6696C32.3328 17.6496 32.568 17.6189 32.7675 17.578C32.7508 17.6347 32.7403 17.698 32.736 17.7668C32.7318 17.8361 32.7299 17.8989 32.7299 17.9556C32.7299 18.0859 32.7422 18.1915 32.7675 18.2724C32.3932 18.2561 32.0209 18.2482 31.6505 18.2482H29.3856C29.0113 18.2482 28.6323 18.2561 28.25 18.2724C28.2748 17.7524 28.2976 17.2343 28.3186 16.718C28.339 16.2022 28.35 15.6756 28.35 15.1394V13.0426C28.35 12.5063 28.3395 11.978 28.3186 11.458V11.4589Z" fill="white"/>
<path d="M37.7227 18.2743C37.656 18.071 37.5541 17.7501 37.417 17.311C37.2799 16.8719 37.1237 16.3766 36.949 15.8236C36.7742 15.271 36.5914 14.6919 36.4 14.0863C36.2086 13.4812 36.0258 12.904 35.851 12.3552C35.6763 11.8068 35.5158 11.3129 35.3706 10.8743C35.2249 10.4352 35.1107 10.1105 35.0273 9.8989C35.1354 9.91518 35.2397 9.9296 35.3392 9.94169C35.4387 9.95379 35.543 9.95983 35.6511 9.95983C35.7591 9.95983 35.8634 9.95379 35.9629 9.94169C36.0624 9.9296 36.1667 9.91518 36.2748 9.8989C36.4329 10.5166 36.5867 11.0956 36.7366 11.6361C36.8866 12.1766 37.0466 12.7254 37.217 13.2817C37.3875 13.8384 37.5703 14.4236 37.766 15.037C37.9612 15.6505 38.184 16.3436 38.4335 17.1156H38.4583C38.533 16.8961 38.6368 16.5933 38.7702 16.2073C38.903 15.8212 39.0487 15.3947 39.2068 14.9273C39.3648 14.4598 39.531 13.9747 39.7057 13.4705C39.8805 12.9668 40.0428 12.4854 40.1923 12.0259C40.3423 11.5668 40.4752 11.1482 40.5918 10.7701C40.708 10.3924 40.7913 10.1017 40.8413 9.89844C41.0075 9.93937 41.1451 9.95937 41.2531 9.95937C41.3612 9.95937 41.4984 9.93937 41.665 9.89844C41.7231 10.118 41.8126 10.4184 41.9331 10.8008C42.0535 11.1826 42.1887 11.6073 42.3387 12.0747C42.4887 12.5422 42.6487 13.0277 42.8191 13.5315C42.9896 14.0356 43.1538 14.5189 43.3119 14.9822C43.47 15.4454 43.6133 15.864 43.7423 16.238C43.8714 16.6119 43.9732 16.9045 44.048 17.1156H44.0728C44.1308 16.937 44.2204 16.6584 44.3408 16.2808C44.4613 15.9031 44.5984 15.4761 44.7527 15.0008C44.9064 14.5254 45.0645 14.0254 45.2269 13.5012C45.3892 12.977 45.543 12.477 45.6887 12.0017C45.8339 11.5263 45.9634 11.1017 46.0753 10.7277C46.1877 10.3538 46.2644 10.0775 46.3063 9.8989C46.381 9.91518 46.4539 9.9296 46.5248 9.94169C46.5953 9.95379 46.6681 9.95983 46.7433 9.95983C46.8186 9.95983 46.8909 9.95379 46.9619 9.94169C47.0323 9.9296 47.1052 9.91518 47.1804 9.8989C47.0971 10.0859 46.9766 10.3947 46.8186 10.8254C46.6605 11.2561 46.4834 11.7477 46.2882 12.3003C46.0925 12.8529 45.8887 13.438 45.6768 14.0556C45.4645 14.6733 45.2607 15.2608 45.0655 15.817C44.8698 16.3738 44.695 16.8738 44.5413 17.3166C44.3875 17.7598 44.2732 18.0784 44.198 18.2733C44.0647 18.257 43.9233 18.2491 43.7737 18.2491C43.6242 18.2491 43.4824 18.257 43.3495 18.2733C42.9753 17.1436 42.6049 16.0077 42.2387 14.8659C41.8726 13.724 41.4774 12.5436 41.0532 11.3245H41.0284C40.9618 11.5115 40.8722 11.7612 40.7604 12.0743C40.648 12.3873 40.5232 12.7384 40.3861 13.1287C40.249 13.5189 40.1009 13.9375 39.9433 14.3845C39.7853 14.8315 39.6272 15.2826 39.4691 15.7375C39.311 16.1929 39.1572 16.6398 39.0073 17.0784C38.8573 17.5175 38.7202 17.9156 38.5954 18.2733C38.4621 18.257 38.3164 18.2491 38.1588 18.2491C38.0012 18.2491 37.855 18.257 37.7222 18.2733L37.7227 18.2743Z" fill="white"/>
<path d="M50.0339 11.477C50.0129 10.9612 49.9901 10.4347 49.9653 9.89844C50.0734 9.91472 50.1777 9.92914 50.2772 9.94123C50.3772 9.95332 50.4767 9.95937 50.5767 9.95937C50.6767 9.95937 50.7762 9.95332 50.8761 9.94123C50.9761 9.92914 51.0799 9.91472 51.188 9.89844C51.1633 10.4347 51.1399 10.9612 51.1194 11.477C51.0985 11.9933 51.088 12.5194 51.088 13.0556C51.088 14.0798 51.0923 14.9677 51.1004 15.7194C51.1085 16.471 51.1171 17.1436 51.1252 17.737C51.7156 17.737 52.2817 17.731 52.8225 17.7189C53.3634 17.7068 53.9457 17.6598 54.5694 17.5789C54.5275 17.7254 54.5071 17.8473 54.5071 17.9445C54.5071 18.0338 54.5275 18.1436 54.5694 18.2738C54.1866 18.2575 53.8038 18.2496 53.4215 18.2496H51.119C50.7485 18.2496 50.3638 18.2575 49.9648 18.2738C49.9896 17.7701 50.0125 17.258 50.0334 16.738C50.0539 16.218 50.0648 15.6896 50.0648 15.1533V13.0566C50.0648 12.5203 50.0544 11.9943 50.0334 11.478L50.0339 11.477Z" fill="white"/>
<path d="M58.5046 14.8473C58.4213 14.7091 58.2985 14.5082 58.1366 14.244C57.9742 13.9798 57.7952 13.6873 57.6 13.3663C57.4043 13.0454 57.1986 12.7082 56.9825 12.3547C56.7663 12.0012 56.5601 11.664 56.3649 11.3431C56.1692 11.0222 55.9926 10.7338 55.8345 10.4775C55.6764 10.2217 55.5555 10.0287 55.4727 9.89844C55.5888 9.91472 55.7036 9.92914 55.8159 9.94123C55.9283 9.95332 56.0426 9.95937 56.1592 9.95937C56.2759 9.95937 56.3901 9.95332 56.5025 9.94123C56.6149 9.92914 56.7292 9.91472 56.8458 9.89844C57.22 10.6054 57.6009 11.3003 57.9875 11.9831C58.3742 12.6659 58.7841 13.377 59.2169 14.1166C59.4083 13.824 59.6078 13.5031 59.8159 13.1533C60.0239 12.804 60.232 12.4463 60.4401 12.0808C60.6481 11.7152 60.8476 11.3473 61.039 10.9775C61.2304 10.6077 61.409 10.2482 61.5756 9.89844C61.7837 9.93937 61.9456 9.95937 62.0622 9.95937C62.1789 9.95937 62.3408 9.93937 62.5488 9.89844C62.1494 10.4919 61.7918 11.0282 61.4756 11.5077C61.1595 11.9873 60.8805 12.4222 60.6396 12.8119C60.3982 13.2022 60.1858 13.5538 60.003 13.8663C59.8197 14.1794 59.6616 14.4617 59.5288 14.7138C59.5288 15.0147 59.5307 15.3356 59.535 15.677C59.5392 16.0184 59.5454 16.3538 59.5535 16.6826C59.5616 17.0119 59.5721 17.3166 59.5849 17.597C59.5973 17.8775 59.6121 18.1031 59.6287 18.2738C59.4373 18.2575 59.2336 18.2496 59.0174 18.2496C58.8012 18.2496 58.597 18.2575 58.4061 18.2738C58.4561 17.8515 58.4851 17.3394 58.4932 16.738C58.5013 16.1366 58.5056 15.5068 58.5056 14.8487L58.5046 14.8473Z" fill="white"/>
<path d="M70.4753 11.477C70.4543 10.9612 70.4315 10.4347 70.4067 9.89844C70.5148 9.91472 70.6191 9.92914 70.7186 9.94123C70.8186 9.95332 70.9181 9.95937 71.0181 9.95937C71.1181 9.95937 71.2176 9.95332 71.3176 9.94123C71.4175 9.92914 71.5213 9.91472 71.6294 9.89844C71.6047 10.4347 71.5813 10.9612 71.5609 11.477C71.5399 11.9933 71.5294 12.5194 71.5294 13.0556C71.5294 14.0798 71.5337 14.9677 71.5418 15.7194C71.5499 16.471 71.5585 17.1436 71.5666 17.737C72.157 17.737 72.7231 17.731 73.2639 17.7189C73.8048 17.7068 74.3871 17.6598 75.0108 17.5789C74.9689 17.7254 74.9485 17.8473 74.9485 17.9445C74.9485 18.0338 74.9689 18.1436 75.0108 18.2738C74.628 18.2575 74.2452 18.2496 73.8629 18.2496H71.5604C71.19 18.2496 70.8052 18.2575 70.4062 18.2738C70.431 17.7701 70.4539 17.258 70.4748 16.738C70.4953 16.218 70.5062 15.6896 70.5062 15.1533V13.0566C70.5062 12.5203 70.4958 11.9943 70.4748 11.478L70.4753 11.477Z" fill="white"/>
<path d="M85.1347 18.2761C85.0181 18.2599 84.9081 18.252 84.8038 18.252H84.1425C84.0382 18.252 83.9282 18.2599 83.8116 18.2761C83.7535 18.0892 83.6744 17.8636 83.5744 17.5994C83.4745 17.3352 83.3645 17.0589 83.2435 16.7706C83.1226 16.4822 83.0002 16.1896 82.8755 15.8929C82.7507 15.5961 82.6341 15.3138 82.526 15.0454C82.2599 15.0375 81.9894 15.0315 81.7147 15.0273C81.44 15.0231 81.1657 15.0213 80.891 15.0213C80.633 15.0213 80.3792 15.0231 80.1297 15.0273C79.8802 15.0315 79.6264 15.0375 79.3684 15.0454C79.1022 15.6794 78.8608 16.2827 78.6447 16.8557C78.4285 17.4287 78.2661 17.9022 78.1581 18.2757C78.0166 18.2594 77.8629 18.2515 77.6962 18.2515C77.5296 18.2515 77.3758 18.2594 77.2344 18.2757C77.9081 16.8533 78.5651 15.4394 79.206 14.0333C79.8464 12.6273 80.4915 11.1971 81.14 9.74219H81.3771C81.5766 10.2138 81.7933 10.7236 82.0261 11.272C82.2589 11.8203 82.496 12.3752 82.7374 12.9361C82.9788 13.4971 83.2197 14.0538 83.4611 14.6064C83.7025 15.1589 83.9292 15.6729 84.141 16.1487C84.3534 16.624 84.5443 17.0487 84.7152 17.4227C84.8857 17.7966 85.0252 18.0808 85.1333 18.2761H85.1347ZM79.6064 14.485C79.8226 14.485 80.0473 14.4892 80.2801 14.4971C80.513 14.5054 80.7377 14.5092 80.9539 14.5092C81.1867 14.5092 81.4195 14.5073 81.6528 14.5031C81.8856 14.4989 82.1185 14.4929 82.3518 14.485L80.9667 11.3887L79.6064 14.485Z" fill="white"/>
<path d="M94.1882 13.8603C94.1882 12.7063 94.1839 11.8166 94.1758 11.1905C94.1672 10.5649 94.1468 10.1343 94.1134 9.89844C94.2049 9.91472 94.292 9.92914 94.3753 9.94123C94.4582 9.95332 94.5415 9.95937 94.6248 9.95937C94.7329 9.95937 94.8576 9.93937 94.999 9.89844C94.9743 10.1831 94.949 10.5222 94.9243 10.9166C94.8995 11.311 94.8786 11.7333 94.8619 12.1845C94.8452 12.6356 94.8286 13.0989 94.8119 13.5743C94.7953 14.0496 94.7829 14.511 94.7743 14.958C94.7657 15.5026 94.6805 15.9901 94.5186 16.4208C94.3563 16.8515 94.1253 17.2175 93.8259 17.518C93.5264 17.8189 93.1583 18.0463 92.7213 18.2008C92.2846 18.3552 91.7833 18.4324 91.2176 18.4324C89.9697 18.4324 89.0627 18.1561 88.4971 17.6036C87.9314 17.051 87.6486 16.177 87.6486 14.9826C87.6486 14.6008 87.6591 14.2617 87.68 13.9649C87.7005 13.6682 87.7115 13.3659 87.7115 13.0566C87.7115 12.3738 87.7029 11.7687 87.6867 11.2403C87.67 10.7119 87.6534 10.2649 87.6367 9.89937C87.7367 9.91565 87.8448 9.93007 87.961 9.94216C88.0776 9.95425 88.1857 9.9603 88.2857 9.9603C88.3771 9.9603 88.4666 9.95425 88.5537 9.94216C88.6409 9.93007 88.7304 9.91565 88.8218 9.89937C88.8051 10.0784 88.7885 10.3119 88.7718 10.6003C88.7551 10.8887 88.7385 11.2161 88.7218 11.5817C88.7051 11.9473 88.6928 12.3417 88.6842 12.764C88.6756 13.1868 88.6718 13.6254 88.6718 14.0808C88.6718 14.357 88.6761 14.6436 88.6842 14.9403C88.6923 15.237 88.7218 15.5254 88.7713 15.8059C88.8213 16.0863 88.9023 16.3543 89.0146 16.6105C89.127 16.8663 89.287 17.0901 89.495 17.2812C89.7031 17.4724 89.965 17.6226 90.2811 17.7324C90.5973 17.8422 90.9882 17.897 91.4543 17.897C91.9204 17.897 92.2965 17.8319 92.6084 17.7022C92.9203 17.5724 93.176 17.4017 93.3759 17.1901C93.5754 16.9789 93.7316 16.7352 93.844 16.4584C93.9563 16.1822 94.0373 15.8938 94.0873 15.5929C94.1372 15.2924 94.1663 14.9915 94.1744 14.6905C94.1825 14.3901 94.1868 14.1138 94.1868 13.8617L94.1882 13.8603Z" fill="white"/>
<path d="M102.862 15.1124C101.78 13.9785 100.699 12.851 99.6171 11.7296C99.6086 11.9571 99.6005 12.2622 99.5924 12.644C99.5838 13.0259 99.58 13.5464 99.58 14.2045C99.58 14.3752 99.5819 14.5864 99.5862 14.8385C99.5905 15.0906 99.5943 15.3547 99.5986 15.631C99.6029 15.9073 99.609 16.1878 99.6171 16.472C99.6252 16.7566 99.6338 17.0203 99.6419 17.2645C99.65 17.5082 99.6586 17.7217 99.6667 17.9045C99.6748 18.0873 99.6833 18.2115 99.6914 18.2761C99.5581 18.2599 99.4124 18.252 99.2548 18.252C99.0882 18.252 98.9344 18.2599 98.793 18.2761C98.8096 18.1952 98.8282 18.0445 98.8492 17.825C98.8696 17.6054 98.8887 17.3436 98.9053 17.0385C98.922 16.7338 98.9406 16.4027 98.9615 16.045C98.982 15.6873 98.9991 15.3301 99.0115 14.9724C99.0239 14.6147 99.0344 14.2654 99.0429 13.924C99.051 13.5827 99.0553 13.278 99.0553 13.0096C99.0553 12.2296 99.0534 11.5589 99.0491 10.998C99.0448 10.4371 99.0344 10.0189 99.0177 9.74219H99.2172C99.7248 10.2785 100.268 10.8538 100.846 11.4673C101.424 12.0808 101.998 12.6864 102.568 13.2836C103.138 13.8808 103.678 14.4459 104.19 14.978C104.702 15.5106 105.149 15.9636 105.532 16.3371V14.6789C105.532 13.8254 105.525 12.9947 105.513 12.1859C105.501 11.3775 105.473 10.6152 105.432 9.90033C105.598 9.94126 105.74 9.96126 105.856 9.96126C105.956 9.96126 106.089 9.94126 106.256 9.90033C106.239 10.0794 106.22 10.3473 106.2 10.705C106.179 11.0627 106.158 11.4445 106.137 11.851C106.116 12.2575 106.098 12.6557 106.081 13.0459C106.064 13.4361 106.056 13.7492 106.056 13.9845V14.7161C106.056 14.9924 106.058 15.2813 106.062 15.5817C106.067 15.8827 106.071 16.185 106.075 16.4901C106.079 16.7947 106.083 17.0794 106.087 17.3436C106.091 17.6078 106.093 17.8375 106.093 18.0324V18.4347H105.919C104.962 17.3538 103.943 16.2464 102.861 15.1129L102.862 15.1124Z" fill="white"/>
<path d="M116.198 17.9896C116.035 18.0668 115.84 18.1361 115.611 18.1971C115.382 18.258 115.126 18.3129 114.843 18.3617C114.561 18.4106 114.265 18.4347 113.957 18.4347C113.3 18.4347 112.693 18.3431 112.135 18.1603C111.578 17.9775 111.097 17.6994 110.694 17.3254C110.29 16.952 109.974 16.4947 109.746 15.9538C109.517 15.4134 109.402 14.798 109.402 14.1068C109.402 13.4157 109.517 12.8003 109.746 12.2599C109.974 11.7194 110.295 11.2622 110.706 10.8882C111.118 10.5143 111.611 10.2301 112.185 10.0347C112.759 9.83986 113.391 9.74219 114.082 9.74219C114.631 9.74219 115.133 9.79707 115.586 9.90684C116.039 10.0166 116.44 10.1487 116.79 10.3031C116.723 10.4171 116.669 10.5715 116.628 10.7664C116.586 10.9613 116.553 11.124 116.528 11.2538L116.453 11.278C116.369 11.1803 116.253 11.0706 116.103 10.9487C115.954 10.8268 115.779 10.7092 115.579 10.5952C115.38 10.4817 115.155 10.3859 114.905 10.3087C114.656 10.2315 114.381 10.1929 114.082 10.1929C113.591 10.1929 113.135 10.2701 112.715 10.4245C112.295 10.5789 111.929 10.8166 111.617 11.1375C111.305 11.4585 111.062 11.865 110.887 12.3566C110.713 12.8482 110.626 13.4315 110.626 14.1059C110.626 14.7803 110.713 15.3636 110.887 15.8552C111.062 16.3468 111.305 16.7533 111.617 17.0743C111.929 17.3952 112.295 17.6333 112.715 17.7873C113.135 17.9417 113.591 18.0189 114.082 18.0189C114.381 18.0189 114.658 17.9822 114.912 17.9092C115.165 17.8361 115.398 17.7487 115.611 17.6473C115.823 17.5459 116.014 17.4361 116.185 17.318C116.355 17.2003 116.498 17.0966 116.615 17.0073L116.665 17.0561L116.553 17.7752C116.478 17.8403 116.359 17.9115 116.197 17.9887L116.198 17.9896Z" fill="white"/>
<path d="M126.132 11.477C126.111 10.9612 126.088 10.4347 126.063 9.89844C126.171 9.91472 126.276 9.92914 126.375 9.94123C126.475 9.95332 126.575 9.95937 126.675 9.95937C126.775 9.95937 126.874 9.95332 126.974 9.94123C127.074 9.92914 127.178 9.91472 127.286 9.89844C127.261 10.4347 127.238 10.9612 127.217 11.477C127.197 11.9933 127.186 12.5194 127.186 13.0556V15.1524C127.186 15.6887 127.197 16.217 127.217 16.737C127.238 17.257 127.261 17.7691 127.286 18.2729C127.095 18.2566 126.891 18.2487 126.675 18.2487C126.459 18.2487 126.254 18.2566 126.063 18.2729C126.088 17.7691 126.111 17.257 126.132 16.737C126.152 16.217 126.163 15.6887 126.163 15.1524V14.0552C125.714 14.0473 125.279 14.0412 124.859 14.037C124.439 14.0329 124.005 14.031 123.555 14.031C123.106 14.031 122.671 14.0329 122.251 14.037C121.831 14.0412 121.396 14.0473 120.947 14.0552V15.1524C120.947 15.6887 120.957 16.217 120.978 16.737C120.999 17.257 121.022 17.7691 121.047 18.2729C120.856 18.2566 120.652 18.2487 120.436 18.2487C120.219 18.2487 120.015 18.2566 119.824 18.2729C119.849 17.7691 119.872 17.257 119.893 16.737C119.913 16.217 119.924 15.6887 119.924 15.1524V13.0556C119.924 12.5194 119.914 11.9933 119.893 11.477C119.872 10.9612 119.849 10.4347 119.824 9.89844C119.932 9.91472 120.037 9.92914 120.136 9.94123C120.236 9.95332 120.336 9.95937 120.436 9.95937C120.536 9.95937 120.635 9.95332 120.735 9.94123C120.835 9.92914 120.939 9.91472 121.047 9.89844C121.022 10.4347 120.999 10.9612 120.978 11.477C120.957 11.9933 120.947 12.5194 120.947 13.0556V13.4822C121.396 13.4905 121.831 13.4984 122.251 13.5063C122.671 13.5147 123.106 13.5184 123.555 13.5184C124.005 13.5184 124.439 13.5143 124.859 13.5063C125.279 13.4984 125.714 13.4901 126.163 13.4822V13.0556C126.163 12.5194 126.153 11.9933 126.132 11.477Z" fill="white"/>
<path d="M131.096 11.4589C131.075 10.9389 131.052 10.4189 131.027 9.89844C131.402 9.91472 131.774 9.92914 132.144 9.94123C132.514 9.95332 132.887 9.95937 133.261 9.95937C133.636 9.95937 134.006 9.95332 134.372 9.94123C134.738 9.92914 135.108 9.91472 135.483 9.89844C135.458 10.0203 135.445 10.1422 135.445 10.264C135.445 10.3859 135.458 10.5077 135.483 10.6296C135.217 10.6133 134.973 10.597 134.753 10.5808C134.533 10.5645 134.299 10.5482 134.054 10.5319C133.808 10.5156 133.54 10.5012 133.249 10.4891C132.958 10.477 132.608 10.471 132.201 10.471C132.192 10.731 132.182 10.9789 132.169 11.2147C132.157 11.4505 132.151 11.7189 132.151 12.0194C132.151 12.3361 132.152 12.6454 132.157 12.9459C132.161 13.2468 132.163 13.4743 132.163 13.6287C132.529 13.6287 132.858 13.6245 133.149 13.6166C133.44 13.6087 133.706 13.5984 133.947 13.5859C134.189 13.5738 134.411 13.5617 134.615 13.5491C134.819 13.537 135.012 13.5231 135.195 13.5063C135.171 13.6282 135.158 13.7543 135.158 13.884C135.158 14.0059 135.17 14.1277 135.195 14.2496C134.979 14.2254 134.727 14.2049 134.44 14.1887C134.153 14.1724 133.866 14.1626 133.579 14.158C133.292 14.1538 133.022 14.1501 132.768 14.1459C132.514 14.1417 132.312 14.1398 132.163 14.1398C132.163 14.2129 132.161 14.2924 132.157 14.3775C132.152 14.4626 132.151 14.5705 132.151 14.7008V15.9077C132.151 16.371 132.152 16.7529 132.157 17.0538C132.161 17.3547 132.167 17.5822 132.175 17.7366H133.049C133.365 17.7366 133.675 17.7305 133.979 17.7184C134.283 17.7063 134.57 17.6901 134.84 17.6696C135.11 17.6496 135.345 17.6189 135.545 17.578C135.528 17.6347 135.518 17.698 135.513 17.7668C135.509 17.8361 135.507 17.8989 135.507 17.9556C135.507 18.0859 135.52 18.1915 135.545 18.2724C135.171 18.2561 134.798 18.2482 134.428 18.2482H132.163C131.789 18.2482 131.41 18.2561 131.027 18.2724C131.052 17.7524 131.075 17.2343 131.096 16.718C131.116 16.2022 131.127 15.6756 131.127 15.1394V13.0426C131.127 12.5063 131.117 11.978 131.096 11.458V11.4589Z" fill="white"/>
<path d="M138.87 13.0561C138.87 12.5198 138.859 11.9938 138.838 11.4775C138.817 10.9617 138.794 10.4352 138.77 9.8989C139.086 9.91518 139.4 9.9296 139.712 9.94169C140.024 9.95379 140.338 9.95983 140.654 9.95983C140.97 9.95983 141.284 9.9496 141.596 9.92913C141.908 9.90913 142.222 9.89844 142.539 9.89844C143.27 9.89844 143.896 9.99193 144.417 10.1789C144.937 10.3659 145.363 10.6319 145.696 10.9775C146.029 11.3231 146.272 11.7454 146.426 12.2454C146.58 12.7454 146.657 13.3082 146.657 13.9338C146.657 14.7463 146.514 15.4315 146.227 15.9877C145.939 16.5445 145.573 16.9933 145.129 17.3347C144.683 17.6761 144.193 17.918 143.656 18.0598C143.119 18.2022 142.606 18.2733 142.115 18.2733C141.832 18.2733 141.553 18.2691 141.279 18.2612C141.004 18.2529 140.725 18.2491 140.443 18.2491H139.607C139.332 18.2491 139.053 18.257 138.77 18.2733C138.795 17.7696 138.818 17.2575 138.839 16.7375C138.86 16.2175 138.87 15.6891 138.87 15.1529V13.0561H138.87ZM139.893 15.1529C139.893 16.0305 139.917 16.8919 139.967 17.737C140.142 17.778 140.379 17.8082 140.679 17.8287C140.978 17.8491 141.286 17.8594 141.602 17.8594C142.06 17.8594 142.518 17.8068 142.975 17.7008C143.433 17.5952 143.843 17.3961 144.204 17.1036C144.566 16.811 144.862 16.411 145.091 15.9026C145.319 15.3947 145.434 14.7384 145.434 13.9338C145.434 13.2268 145.344 12.6459 145.165 12.1905C144.986 11.7356 144.741 11.3756 144.429 11.1115C144.117 10.8473 143.745 10.6645 143.312 10.5631C142.879 10.4617 142.405 10.4105 141.89 10.4105C141.515 10.4105 141.166 10.4226 140.841 10.4473C140.516 10.4719 140.226 10.5003 139.967 10.5324C139.943 10.9226 139.924 11.331 139.911 11.7575C139.899 12.184 139.893 12.617 139.893 13.0556V15.1524V15.1529Z" fill="white"/>
</svg>
